<?xml version="1.0" encoding="UTF-8" standalone="no"?> <svg xmlns="http://www.w3.org/2000/svg" viewBox="0 0 32 32"><title>Camera</title><g id="Camera"><path d="M25,8h-.764a.994.994,0,0,1-.894-.553l-.895-1.789A2.983,2.983,0,0,0,19.764,4H12.236A2.983,2.983,0,0,0,9.553,5.658l-.9,1.789A.994.994,0,0,1,7.764,8H7a5.006,5.006,0,0,0-5,5V23a5.006,5.006,0,0,0,5,5H25a5.006,5.006,0,0,0,5-5V13A5.006,5.006,0,0,0,25,8Zm3,15a3,3,0,0,1-3,3H7a3,3,0,0,1-3-3V13a3,3,0,0,1,3-3h.764a2.983,2.983,0,0,0,2.683-1.658l.9-1.789A.994.994,0,0,1,12.236,6h7.528a.994.994,0,0,1,.894.553l.895,1.789A2.983,2.983,0,0,0,24.236,10H25a3,3,0,0,1,3,3Z"/><path d="M16,11a6,6,0,1,0,6,6A6.006,6.006,0,0,0,16,11Zm0,10a4,4,0,1,1,4-4A4,4,0,0,1,16,21Z"/></g></svg>